<mxfile host="app.diagrams.net" modified="2024-02-05T08:20:53.444Z" agent="Mozilla/5.0 (Windows NT 10.0; Win64; x64) AppleWebKit/537.36 (KHTML, like Gecko) Chrome/121.0.0.0 Safari/537.36" etag="5MC08E8-9n74qkw8rLTC" version="23.1.1" type="device">
  <diagram name="Page-1" id="sob7VCfPfPzdJXuzABSY">
    <mxGraphModel dx="1644" dy="1520" grid="1" gridSize="10" guides="1" tooltips="1" connect="1" arrows="1" fold="1" page="1" pageScale="1" pageWidth="850" pageHeight="1100" math="0" shadow="0">
      <root>
        <mxCell id="0" />
        <mxCell id="1" parent="0" />
        <mxCell id="DqS84Ummb7T9fI48UNBy-1" value="Employee" style="rounded=0;whiteSpace=wrap;html=1;" parent="1" vertex="1">
          <mxGeometry x="80" y="100" width="120" height="60" as="geometry" />
        </mxCell>
        <mxCell id="DqS84Ummb7T9fI48UNBy-2" value="Takes" style="rhombus;whiteSpace=wrap;html=1;" parent="1" vertex="1">
          <mxGeometry x="290" y="90" width="80" height="80" as="geometry" />
        </mxCell>
        <mxCell id="DqS84Ummb7T9fI48UNBy-3" value="Order" style="rounded=0;whiteSpace=wrap;html=1;" parent="1" vertex="1">
          <mxGeometry x="450" y="100" width="120" height="60" as="geometry" />
        </mxCell>
        <mxCell id="DqS84Ummb7T9fI48UNBy-4" value="Gives" style="rhombus;whiteSpace=wrap;html=1;" parent="1" vertex="1">
          <mxGeometry x="660" y="90" width="80" height="80" as="geometry" />
        </mxCell>
        <mxCell id="DqS84Ummb7T9fI48UNBy-5" value="Customer" style="rounded=0;whiteSpace=wrap;html=1;" parent="1" vertex="1">
          <mxGeometry x="820" y="100" width="120" height="60" as="geometry" />
        </mxCell>
        <mxCell id="DqS84Ummb7T9fI48UNBy-7" value="Reports" style="rhombus;whiteSpace=wrap;html=1;" parent="1" vertex="1">
          <mxGeometry x="100" y="230" width="80" height="80" as="geometry" />
        </mxCell>
        <mxCell id="DqS84Ummb7T9fI48UNBy-9" value="Manager" style="rounded=0;whiteSpace=wrap;html=1;" parent="1" vertex="1">
          <mxGeometry x="80" y="370" width="120" height="60" as="geometry" />
        </mxCell>
        <mxCell id="DqS84Ummb7T9fI48UNBy-10" value="Manages" style="rhombus;whiteSpace=wrap;html=1;" parent="1" vertex="1">
          <mxGeometry x="480" y="360" width="80" height="80" as="geometry" />
        </mxCell>
        <mxCell id="DqS84Ummb7T9fI48UNBy-11" value="Restaurant Account" style="rounded=0;whiteSpace=wrap;html=1;" parent="1" vertex="1">
          <mxGeometry x="830" y="380" width="120" height="60" as="geometry" />
        </mxCell>
        <mxCell id="DqS84Ummb7T9fI48UNBy-13" value="Pays" style="rhombus;whiteSpace=wrap;html=1;" parent="1" vertex="1">
          <mxGeometry x="840" y="230" width="80" height="80" as="geometry" />
        </mxCell>
        <mxCell id="DqS84Ummb7T9fI48UNBy-14" value="" style="endArrow=none;html=1;rounded=0;exitX=1;exitY=0.5;exitDx=0;exitDy=0;entryX=0;entryY=0.5;entryDx=0;entryDy=0;" parent="1" source="DqS84Ummb7T9fI48UNBy-1" target="DqS84Ummb7T9fI48UNBy-2" edge="1">
          <mxGeometry width="50" height="50" relative="1" as="geometry">
            <mxPoint x="220" y="140" as="sourcePoint" />
            <mxPoint x="270" y="90" as="targetPoint" />
          </mxGeometry>
        </mxCell>
        <mxCell id="DqS84Ummb7T9fI48UNBy-15" value="" style="endArrow=none;html=1;rounded=0;exitX=1;exitY=0.5;exitDx=0;exitDy=0;" parent="1" edge="1">
          <mxGeometry width="50" height="50" relative="1" as="geometry">
            <mxPoint x="370" y="129.5" as="sourcePoint" />
            <mxPoint x="450" y="130" as="targetPoint" />
          </mxGeometry>
        </mxCell>
        <mxCell id="DqS84Ummb7T9fI48UNBy-16" value="" style="endArrow=none;html=1;rounded=0;exitX=1;exitY=0.5;exitDx=0;exitDy=0;entryX=0;entryY=0.5;entryDx=0;entryDy=0;" parent="1" source="DqS84Ummb7T9fI48UNBy-3" target="DqS84Ummb7T9fI48UNBy-4" edge="1">
          <mxGeometry width="50" height="50" relative="1" as="geometry">
            <mxPoint x="600" y="170" as="sourcePoint" />
            <mxPoint x="650" y="120" as="targetPoint" />
          </mxGeometry>
        </mxCell>
        <mxCell id="DqS84Ummb7T9fI48UNBy-17" value="" style="endArrow=none;html=1;rounded=0;exitX=1;exitY=0.5;exitDx=0;exitDy=0;" parent="1" edge="1">
          <mxGeometry width="50" height="50" relative="1" as="geometry">
            <mxPoint x="740" y="129.5" as="sourcePoint" />
            <mxPoint x="820" y="130" as="targetPoint" />
          </mxGeometry>
        </mxCell>
        <mxCell id="DqS84Ummb7T9fI48UNBy-18" value="" style="endArrow=none;html=1;rounded=0;exitX=0.5;exitY=1;exitDx=0;exitDy=0;entryX=0.5;entryY=0;entryDx=0;entryDy=0;" parent="1" source="DqS84Ummb7T9fI48UNBy-5" target="DqS84Ummb7T9fI48UNBy-13" edge="1">
          <mxGeometry width="50" height="50" relative="1" as="geometry">
            <mxPoint x="860" y="180" as="sourcePoint" />
            <mxPoint x="940" y="180.5" as="targetPoint" />
          </mxGeometry>
        </mxCell>
        <mxCell id="DqS84Ummb7T9fI48UNBy-19" value="" style="endArrow=none;html=1;rounded=0;exitX=0.5;exitY=1;exitDx=0;exitDy=0;entryX=0.5;entryY=0;entryDx=0;entryDy=0;" parent="1" edge="1">
          <mxGeometry width="50" height="50" relative="1" as="geometry">
            <mxPoint x="879.5" y="310" as="sourcePoint" />
            <mxPoint x="879.5" y="380" as="targetPoint" />
          </mxGeometry>
        </mxCell>
        <mxCell id="DqS84Ummb7T9fI48UNBy-23" value="" style="endArrow=none;html=1;rounded=0;exitX=0.5;exitY=0;exitDx=0;exitDy=0;" parent="1" source="DqS84Ummb7T9fI48UNBy-7" edge="1">
          <mxGeometry width="50" height="50" relative="1" as="geometry">
            <mxPoint x="90" y="210" as="sourcePoint" />
            <mxPoint x="140" y="160" as="targetPoint" />
          </mxGeometry>
        </mxCell>
        <mxCell id="DqS84Ummb7T9fI48UNBy-24" value="" style="endArrow=none;html=1;rounded=0;" parent="1" edge="1">
          <mxGeometry width="50" height="50" relative="1" as="geometry">
            <mxPoint x="140" y="370" as="sourcePoint" />
            <mxPoint x="139.5" y="310" as="targetPoint" />
          </mxGeometry>
        </mxCell>
        <mxCell id="DqS84Ummb7T9fI48UNBy-25" value="" style="endArrow=none;html=1;rounded=0;exitX=1;exitY=0.5;exitDx=0;exitDy=0;entryX=0;entryY=0.5;entryDx=0;entryDy=0;" parent="1" source="DqS84Ummb7T9fI48UNBy-9" target="DqS84Ummb7T9fI48UNBy-10" edge="1">
          <mxGeometry width="50" height="50" relative="1" as="geometry">
            <mxPoint x="420" y="290" as="sourcePoint" />
            <mxPoint x="470" y="240" as="targetPoint" />
          </mxGeometry>
        </mxCell>
        <mxCell id="DqS84Ummb7T9fI48UNBy-26" value="" style="endArrow=none;html=1;rounded=0;exitX=1;exitY=0.5;exitDx=0;exitDy=0;" parent="1" edge="1">
          <mxGeometry width="50" height="50" relative="1" as="geometry">
            <mxPoint x="560" y="399.5" as="sourcePoint" />
            <mxPoint x="830" y="400" as="targetPoint" />
          </mxGeometry>
        </mxCell>
        <mxCell id="DqS84Ummb7T9fI48UNBy-27" value="Manager_Name" style="ellipse;whiteSpace=wrap;html=1;" parent="1" vertex="1">
          <mxGeometry x="210" y="450" width="100" height="50" as="geometry" />
        </mxCell>
        <mxCell id="DqS84Ummb7T9fI48UNBy-28" value="&lt;u&gt;ManagerID&lt;/u&gt;" style="ellipse;whiteSpace=wrap;html=1;" parent="1" vertex="1">
          <mxGeometry x="100" y="490" width="100" height="50" as="geometry" />
        </mxCell>
        <mxCell id="DqS84Ummb7T9fI48UNBy-29" value="Contacts" style="ellipse;whiteSpace=wrap;html=1;" parent="1" vertex="1">
          <mxGeometry x="-20" y="460" width="100" height="50" as="geometry" />
        </mxCell>
        <mxCell id="DqS84Ummb7T9fI48UNBy-30" value="" style="endArrow=none;html=1;rounded=0;entryX=0.439;entryY=1;entryDx=0;entryDy=0;entryPerimeter=0;" parent="1" target="DqS84Ummb7T9fI48UNBy-9" edge="1">
          <mxGeometry width="50" height="50" relative="1" as="geometry">
            <mxPoint x="70" y="470" as="sourcePoint" />
            <mxPoint x="120" y="420" as="targetPoint" />
          </mxGeometry>
        </mxCell>
        <mxCell id="DqS84Ummb7T9fI48UNBy-31" value="" style="endArrow=none;html=1;rounded=0;entryX=0.567;entryY=1;entryDx=0;entryDy=0;entryPerimeter=0;exitX=0.5;exitY=0;exitDx=0;exitDy=0;" parent="1" source="DqS84Ummb7T9fI48UNBy-28" target="DqS84Ummb7T9fI48UNBy-9" edge="1">
          <mxGeometry width="50" height="50" relative="1" as="geometry">
            <mxPoint x="80" y="480" as="sourcePoint" />
            <mxPoint x="143" y="440" as="targetPoint" />
          </mxGeometry>
        </mxCell>
        <mxCell id="DqS84Ummb7T9fI48UNBy-32" value="" style="endArrow=none;html=1;rounded=0;entryX=0.75;entryY=1;entryDx=0;entryDy=0;exitX=0;exitY=0;exitDx=0;exitDy=0;" parent="1" source="DqS84Ummb7T9fI48UNBy-27" target="DqS84Ummb7T9fI48UNBy-9" edge="1">
          <mxGeometry width="50" height="50" relative="1" as="geometry">
            <mxPoint x="160" y="500" as="sourcePoint" />
            <mxPoint x="158" y="440" as="targetPoint" />
          </mxGeometry>
        </mxCell>
        <mxCell id="DqS84Ummb7T9fI48UNBy-34" value="Salary" style="ellipse;whiteSpace=wrap;html=1;" parent="1" vertex="1">
          <mxGeometry x="190" y="10" width="100" height="50" as="geometry" />
        </mxCell>
        <mxCell id="DqS84Ummb7T9fI48UNBy-35" value="Employee_Address" style="ellipse;whiteSpace=wrap;html=1;" parent="1" vertex="1">
          <mxGeometry x="80" y="-20" width="110" height="50" as="geometry" />
        </mxCell>
        <mxCell id="DqS84Ummb7T9fI48UNBy-36" value="&lt;u&gt;EmployeeID&lt;/u&gt;" style="ellipse;whiteSpace=wrap;html=1;" parent="1" vertex="1">
          <mxGeometry x="-30" y="10" width="100" height="50" as="geometry" />
        </mxCell>
        <mxCell id="DqS84Ummb7T9fI48UNBy-37" value="Employee_Name" style="ellipse;whiteSpace=wrap;html=1;" parent="1" vertex="1">
          <mxGeometry x="-60" y="100" width="100" height="50" as="geometry" />
        </mxCell>
        <mxCell id="DqS84Ummb7T9fI48UNBy-38" value="" style="endArrow=none;html=1;rounded=0;entryX=0;entryY=1;entryDx=0;entryDy=0;" parent="1" target="DqS84Ummb7T9fI48UNBy-34" edge="1">
          <mxGeometry width="50" height="50" relative="1" as="geometry">
            <mxPoint x="160" y="100" as="sourcePoint" />
            <mxPoint x="210" y="50" as="targetPoint" />
          </mxGeometry>
        </mxCell>
        <mxCell id="DqS84Ummb7T9fI48UNBy-39" value="" style="endArrow=none;html=1;rounded=0;entryX=0.5;entryY=1;entryDx=0;entryDy=0;exitX=0.5;exitY=0;exitDx=0;exitDy=0;" parent="1" source="DqS84Ummb7T9fI48UNBy-1" target="DqS84Ummb7T9fI48UNBy-35" edge="1">
          <mxGeometry width="50" height="50" relative="1" as="geometry">
            <mxPoint x="125" y="100" as="sourcePoint" />
            <mxPoint x="175" y="50" as="targetPoint" />
          </mxGeometry>
        </mxCell>
        <mxCell id="DqS84Ummb7T9fI48UNBy-40" value="" style="endArrow=none;html=1;rounded=0;exitX=1;exitY=1;exitDx=0;exitDy=0;entryX=0.25;entryY=0;entryDx=0;entryDy=0;" parent="1" source="DqS84Ummb7T9fI48UNBy-36" target="DqS84Ummb7T9fI48UNBy-1" edge="1">
          <mxGeometry width="50" height="50" relative="1" as="geometry">
            <mxPoint x="40" y="110" as="sourcePoint" />
            <mxPoint x="90" y="60" as="targetPoint" />
          </mxGeometry>
        </mxCell>
        <mxCell id="DqS84Ummb7T9fI48UNBy-41" value="" style="endArrow=none;html=1;rounded=0;entryX=0;entryY=0.5;entryDx=0;entryDy=0;" parent="1" target="DqS84Ummb7T9fI48UNBy-1" edge="1">
          <mxGeometry width="50" height="50" relative="1" as="geometry">
            <mxPoint x="40" y="130" as="sourcePoint" />
            <mxPoint x="90" y="80" as="targetPoint" />
          </mxGeometry>
        </mxCell>
        <mxCell id="DqS84Ummb7T9fI48UNBy-42" value="&lt;u&gt;OrderID&lt;/u&gt;" style="ellipse;whiteSpace=wrap;html=1;" parent="1" vertex="1">
          <mxGeometry x="370" y="10" width="100" height="50" as="geometry" />
        </mxCell>
        <mxCell id="DqS84Ummb7T9fI48UNBy-43" value="Item_Name" style="ellipse;whiteSpace=wrap;html=1;" parent="1" vertex="1">
          <mxGeometry x="460" y="-40" width="100" height="50" as="geometry" />
        </mxCell>
        <mxCell id="DqS84Ummb7T9fI48UNBy-44" value="Price" style="ellipse;whiteSpace=wrap;html=1;" parent="1" vertex="1">
          <mxGeometry x="580" y="10" width="100" height="50" as="geometry" />
        </mxCell>
        <mxCell id="DqS84Ummb7T9fI48UNBy-45" value="" style="endArrow=none;html=1;rounded=0;" parent="1" edge="1">
          <mxGeometry width="50" height="50" relative="1" as="geometry">
            <mxPoint x="540" y="100" as="sourcePoint" />
            <mxPoint x="590" y="50" as="targetPoint" />
          </mxGeometry>
        </mxCell>
        <mxCell id="DqS84Ummb7T9fI48UNBy-46" value="" style="endArrow=none;html=1;rounded=0;exitX=0.5;exitY=0;exitDx=0;exitDy=0;" parent="1" source="DqS84Ummb7T9fI48UNBy-3" edge="1">
          <mxGeometry width="50" height="50" relative="1" as="geometry">
            <mxPoint x="460" y="60" as="sourcePoint" />
            <mxPoint x="510" y="10" as="targetPoint" />
          </mxGeometry>
        </mxCell>
        <mxCell id="DqS84Ummb7T9fI48UNBy-47" value="" style="endArrow=none;html=1;rounded=0;exitX=1;exitY=1;exitDx=0;exitDy=0;" parent="1" source="DqS84Ummb7T9fI48UNBy-42" target="DqS84Ummb7T9fI48UNBy-3" edge="1">
          <mxGeometry width="50" height="50" relative="1" as="geometry">
            <mxPoint x="480" y="160" as="sourcePoint" />
            <mxPoint x="530" y="110" as="targetPoint" />
          </mxGeometry>
        </mxCell>
        <mxCell id="DqS84Ummb7T9fI48UNBy-50" value="&lt;u&gt;CustomerID&lt;/u&gt;" style="ellipse;whiteSpace=wrap;html=1;" parent="1" vertex="1">
          <mxGeometry x="740" y="10" width="100" height="50" as="geometry" />
        </mxCell>
        <mxCell id="DqS84Ummb7T9fI48UNBy-51" value="Customer_Name" style="ellipse;whiteSpace=wrap;html=1;" parent="1" vertex="1">
          <mxGeometry x="830" y="-40" width="100" height="50" as="geometry" />
        </mxCell>
        <mxCell id="DqS84Ummb7T9fI48UNBy-52" value="Address" style="ellipse;whiteSpace=wrap;html=1;" parent="1" vertex="1">
          <mxGeometry x="950" y="10" width="100" height="50" as="geometry" />
        </mxCell>
        <mxCell id="DqS84Ummb7T9fI48UNBy-53" value="" style="endArrow=none;html=1;rounded=0;" parent="1" edge="1">
          <mxGeometry width="50" height="50" relative="1" as="geometry">
            <mxPoint x="910" y="100" as="sourcePoint" />
            <mxPoint x="960" y="50" as="targetPoint" />
          </mxGeometry>
        </mxCell>
        <mxCell id="DqS84Ummb7T9fI48UNBy-54" value="" style="endArrow=none;html=1;rounded=0;exitX=0.5;exitY=0;exitDx=0;exitDy=0;" parent="1" edge="1">
          <mxGeometry width="50" height="50" relative="1" as="geometry">
            <mxPoint x="880" y="100" as="sourcePoint" />
            <mxPoint x="880" y="10" as="targetPoint" />
          </mxGeometry>
        </mxCell>
        <mxCell id="DqS84Ummb7T9fI48UNBy-55" value="" style="endArrow=none;html=1;rounded=0;exitX=1;exitY=1;exitDx=0;exitDy=0;" parent="1" source="DqS84Ummb7T9fI48UNBy-50" edge="1">
          <mxGeometry width="50" height="50" relative="1" as="geometry">
            <mxPoint x="850" y="160" as="sourcePoint" />
            <mxPoint x="859" y="100" as="targetPoint" />
          </mxGeometry>
        </mxCell>
        <mxCell id="DqS84Ummb7T9fI48UNBy-56" value="Contact" style="ellipse;whiteSpace=wrap;html=1;" parent="1" vertex="1">
          <mxGeometry x="1010" y="90" width="100" height="50" as="geometry" />
        </mxCell>
        <mxCell id="DqS84Ummb7T9fI48UNBy-57" value="" style="endArrow=none;html=1;rounded=0;" parent="1" edge="1">
          <mxGeometry width="50" height="50" relative="1" as="geometry">
            <mxPoint x="940" y="120" as="sourcePoint" />
            <mxPoint x="1010" y="120" as="targetPoint" />
          </mxGeometry>
        </mxCell>
        <mxCell id="DqS84Ummb7T9fI48UNBy-58" value="Address" style="ellipse;whiteSpace=wrap;html=1;" parent="1" vertex="1">
          <mxGeometry x="940" y="460" width="100" height="50" as="geometry" />
        </mxCell>
        <mxCell id="DqS84Ummb7T9fI48UNBy-59" value="&lt;u&gt;AccountID&lt;/u&gt;" style="ellipse;whiteSpace=wrap;html=1;" parent="1" vertex="1">
          <mxGeometry x="830" y="500" width="100" height="50" as="geometry" />
        </mxCell>
        <mxCell id="DqS84Ummb7T9fI48UNBy-60" value="Restaurant_Name" style="ellipse;whiteSpace=wrap;html=1;" parent="1" vertex="1">
          <mxGeometry x="710" y="470" width="100" height="50" as="geometry" />
        </mxCell>
        <mxCell id="DqS84Ummb7T9fI48UNBy-61" value="" style="endArrow=none;html=1;rounded=0;entryX=0.439;entryY=1;entryDx=0;entryDy=0;entryPerimeter=0;" parent="1" edge="1">
          <mxGeometry width="50" height="50" relative="1" as="geometry">
            <mxPoint x="800" y="480" as="sourcePoint" />
            <mxPoint x="863" y="440" as="targetPoint" />
          </mxGeometry>
        </mxCell>
        <mxCell id="DqS84Ummb7T9fI48UNBy-62" value="" style="endArrow=none;html=1;rounded=0;entryX=0.567;entryY=1;entryDx=0;entryDy=0;entryPerimeter=0;exitX=0.5;exitY=0;exitDx=0;exitDy=0;" parent="1" source="DqS84Ummb7T9fI48UNBy-59" edge="1">
          <mxGeometry width="50" height="50" relative="1" as="geometry">
            <mxPoint x="810" y="490" as="sourcePoint" />
            <mxPoint x="878" y="440" as="targetPoint" />
          </mxGeometry>
        </mxCell>
        <mxCell id="DqS84Ummb7T9fI48UNBy-63" value="" style="endArrow=none;html=1;rounded=0;entryX=0.75;entryY=1;entryDx=0;entryDy=0;exitX=0;exitY=0;exitDx=0;exitDy=0;" parent="1" source="DqS84Ummb7T9fI48UNBy-58" edge="1">
          <mxGeometry width="50" height="50" relative="1" as="geometry">
            <mxPoint x="890" y="510" as="sourcePoint" />
            <mxPoint x="900" y="440" as="targetPoint" />
          </mxGeometry>
        </mxCell>
        <mxCell id="DqS84Ummb7T9fI48UNBy-65" value="&lt;u&gt;TranscationID&lt;/u&gt;" style="ellipse;whiteSpace=wrap;html=1;" parent="1" vertex="1">
          <mxGeometry x="970" y="245" width="100" height="50" as="geometry" />
        </mxCell>
        <mxCell id="DqS84Ummb7T9fI48UNBy-66" value="" style="endArrow=none;html=1;rounded=0;entryX=0;entryY=0.5;entryDx=0;entryDy=0;" parent="1" target="DqS84Ummb7T9fI48UNBy-65" edge="1">
          <mxGeometry width="50" height="50" relative="1" as="geometry">
            <mxPoint x="920" y="270" as="sourcePoint" />
            <mxPoint x="970" y="220" as="targetPoint" />
          </mxGeometry>
        </mxCell>
        <mxCell id="DqS84Ummb7T9fI48UNBy-67" value="1" style="text;html=1;strokeColor=none;fillColor=none;align=center;verticalAlign=middle;whiteSpace=wrap;rounded=0;" parent="1" vertex="1">
          <mxGeometry x="180" y="100" width="60" height="30" as="geometry" />
        </mxCell>
        <mxCell id="DqS84Ummb7T9fI48UNBy-70" value="M" style="text;html=1;strokeColor=none;fillColor=none;align=center;verticalAlign=middle;whiteSpace=wrap;rounded=0;" parent="1" vertex="1">
          <mxGeometry x="400" y="100" width="60" height="30" as="geometry" />
        </mxCell>
        <mxCell id="DqS84Ummb7T9fI48UNBy-71" value="M" style="text;html=1;strokeColor=none;fillColor=none;align=center;verticalAlign=middle;whiteSpace=wrap;rounded=0;" parent="1" vertex="1">
          <mxGeometry x="550" y="100" width="60" height="30" as="geometry" />
        </mxCell>
        <mxCell id="DqS84Ummb7T9fI48UNBy-72" value="1" style="text;html=1;strokeColor=none;fillColor=none;align=center;verticalAlign=middle;whiteSpace=wrap;rounded=0;" parent="1" vertex="1">
          <mxGeometry x="770" y="100" width="60" height="30" as="geometry" />
        </mxCell>
        <mxCell id="DqS84Ummb7T9fI48UNBy-73" value="M" style="text;html=1;strokeColor=none;fillColor=none;align=center;verticalAlign=middle;whiteSpace=wrap;rounded=0;" parent="1" vertex="1">
          <mxGeometry x="870" y="160" width="60" height="30" as="geometry" />
        </mxCell>
        <mxCell id="DqS84Ummb7T9fI48UNBy-74" value="1" style="text;html=1;strokeColor=none;fillColor=none;align=center;verticalAlign=middle;whiteSpace=wrap;rounded=0;" parent="1" vertex="1">
          <mxGeometry x="870" y="350" width="60" height="30" as="geometry" />
        </mxCell>
        <mxCell id="DqS84Ummb7T9fI48UNBy-75" value="1" style="text;html=1;strokeColor=none;fillColor=none;align=center;verticalAlign=middle;whiteSpace=wrap;rounded=0;" parent="1" vertex="1">
          <mxGeometry x="780" y="370" width="60" height="30" as="geometry" />
        </mxCell>
        <mxCell id="DqS84Ummb7T9fI48UNBy-76" value="1" style="text;html=1;strokeColor=none;fillColor=none;align=center;verticalAlign=middle;whiteSpace=wrap;rounded=0;" parent="1" vertex="1">
          <mxGeometry x="190" y="370" width="60" height="30" as="geometry" />
        </mxCell>
        <mxCell id="DqS84Ummb7T9fI48UNBy-77" value="1" style="text;html=1;strokeColor=none;fillColor=none;align=center;verticalAlign=middle;whiteSpace=wrap;rounded=0;" parent="1" vertex="1">
          <mxGeometry x="90" y="340" width="60" height="30" as="geometry" />
        </mxCell>
        <mxCell id="DqS84Ummb7T9fI48UNBy-78" value="M" style="text;html=1;strokeColor=none;fillColor=none;align=center;verticalAlign=middle;whiteSpace=wrap;rounded=0;" parent="1" vertex="1">
          <mxGeometry x="80" y="160" width="60" height="30" as="geometry" />
        </mxCell>
      </root>
    </mxGraphModel>
  </diagram>
</mxfile>
